<?xml version="1.0"?>
<svg xmlns="http://www.w3.org/2000/svg" xmlns:xlink="http://www.w3.org/1999/xlink" version="1.1" width="320px" height="320px" viewBox="0 0 320 320"><rect x="0" y="0" width="320" height="320" fill="#ffffff" fill-opacity="1"/><path fill="#000000" fill-opacity="1" d="M12,12L68,12L68,20L12,20ZM76,12L84,12L84,20L76,20ZM100,12L116,12L116,20L100,20ZM132,12L196,12L196,20L132,20ZM204,12L220,12L220,20L204,20ZM236,12L244,12L244,20L236,20ZM252,12L308,12L308,20L252,20ZM12,20L20,20L20,28L12,28ZM60,20L68,20L68,28L60,28ZM76,20L100,20L100,28L76,28ZM108,20L132,20L132,28L108,28ZM140,20L148,20L148,28L140,28ZM156,20L164,20L164,28L156,28ZM180,20L188,20L188,28L180,28ZM204,20L228,20L228,28L204,28ZM252,20L260,20L260,28L252,28ZM300,20L308,20L308,28L300,28ZM12,28L20,28L20,36L12,36ZM28,28L52,28L52,36L28,36ZM60,28L68,28L68,36L60,36ZM92,28L116,28L116,36L92,36ZM124,28L156,28L156,36L124,36ZM172,28L204,28L204,36L172,36ZM220,28L236,28L236,36L220,36ZM252,28L260,28L260,36L252,36ZM268,28L292,28L292,36L268,36ZM300,28L308,28L308,36L300,36ZM12,36L20,36L20,44L12,44ZM28,36L52,36L52,44L28,44ZM60,36L68,36L68,44L60,44ZM92,36L100,36L100,44L92,44ZM124,36L132,36L132,44L124,44ZM172,36L180,36L180,44L172,44ZM204,36L228,36L228,44L204,44ZM252,36L260,36L260,44L252,44ZM268,36L292,36L292,44L268,44ZM300,36L308,36L308,44L300,44ZM12,44L20,44L20,52L12,52ZM28,44L52,44L52,52L28,52ZM60,44L68,44L68,52L60,52ZM76,44L108,44L108,52L76,52ZM116,44L140,44L140,52L116,52ZM148,44L156,44L156,52L148,52ZM164,44L172,44L172,52L164,52ZM180,44L220,44L220,52L180,52ZM228,44L244,44L244,52L228,52ZM252,44L260,44L260,52L252,52ZM268,44L292,44L292,52L268,52ZM300,44L308,44L308,52L300,52ZM12,52L20,52L20,60L12,60ZM60,52L68,52L68,60L60,60ZM76,52L84,52L84,60L76,60ZM100,52L108,52L108,60L100,60ZM132,52L140,52L140,60L132,60ZM156,52L164,52L164,60L156,60ZM188,52L196,52L196,60L188,60ZM204,52L228,52L228,60L204,60ZM252,52L260,52L260,60L252,60ZM300,52L308,52L308,60L300,60ZM12,60L68,60L68,68L12,68ZM76,60L84,60L84,68L76,68ZM92,60L100,60L100,68L92,68ZM108,60L116,60L116,68L108,68ZM124,60L132,60L132,68L124,68ZM140,60L148,60L148,68L140,68ZM156,60L164,60L164,68L156,68ZM172,60L180,60L180,68L172,68ZM188,60L196,60L196,68L188,68ZM204,60L212,60L212,68L204,68ZM220,60L228,60L228,68L220,68ZM236,60L244,60L244,68L236,68ZM252,60L308,60L308,68L252,68ZM76,68L84,68L84,76L76,76ZM92,68L116,68L116,76L92,76ZM124,68L148,68L148,76L124,76ZM156,68L180,68L180,76L156,76ZM204,68L212,68L212,76L204,76ZM228,68L236,68L236,76L228,76ZM12,76L36,76L36,84L12,84ZM52,76L68,76L68,84L52,84ZM76,76L100,76L100,84L76,84ZM116,76L132,76L132,84L116,84ZM156,76L180,76L180,84L156,84ZM188,76L220,76L220,84L188,84ZM228,76L276,76L276,84L228,84ZM292,76L308,76L308,84L292,84ZM28,84L60,84L60,92L28,92ZM68,84L76,84L76,92L68,92ZM92,84L100,84L100,92L92,92ZM116,84L132,84L132,92L116,92ZM172,84L180,84L180,92L172,92ZM188,84L196,84L196,92L188,92ZM228,84L236,84L236,92L228,92ZM244,84L252,84L252,92L244,92ZM276,84L284,84L284,92L276,92ZM44,92L52,92L52,100L44,100ZM60,92L68,92L68,100L60,100ZM76,92L108,92L108,100L76,100ZM132,92L140,92L140,100L132,100ZM156,92L164,92L164,100L156,100ZM172,92L180,92L180,100L172,100ZM196,92L212,92L212,100L196,100ZM228,92L236,92L236,100L228,100ZM252,92L268,92L268,100L252,100ZM276,92L284,92L284,100L276,100ZM292,92L308,92L308,100L292,100ZM12,100L20,100L20,108L12,108ZM36,100L44,100L44,108L36,108ZM52,100L60,100L60,108L52,108ZM68,100L84,100L84,108L68,108ZM92,100L100,100L100,108L92,108ZM116,100L124,100L124,108L116,108ZM164,100L188,100L188,108L164,108ZM196,100L204,100L204,108L196,108ZM236,100L268,100L268,108L236,108ZM276,100L308,100L308,108L276,108ZM12,108L36,108L36,116L12,116ZM44,108L76,108L76,116L44,116ZM92,108L124,108L124,116L92,116ZM132,108L180,108L180,116L132,116ZM196,108L204,108L204,116L196,116ZM212,108L220,108L220,116L212,116ZM228,108L236,108L236,116L228,116ZM252,108L292,108L292,116L252,116ZM300,108L308,108L308,116L300,116ZM12,116L20,116L20,124L12,124ZM28,116L44,116L44,124L28,124ZM68,116L76,116L76,124L68,124ZM92,116L100,116L100,124L92,124ZM108,116L116,116L116,124L108,124ZM140,116L148,116L148,124L140,124ZM188,116L196,116L196,124L188,124ZM204,116L212,116L212,124L204,124ZM220,116L228,116L228,124L220,124ZM260,116L268,116L268,124L260,124ZM276,116L284,116L284,124L276,124ZM292,116L300,116L300,124L292,124ZM12,124L36,124L36,132L12,132ZM52,124L84,124L84,132L52,132ZM92,124L100,124L100,132L92,132ZM108,124L132,124L132,132L108,132ZM140,124L156,124L156,132L140,132ZM164,124L172,124L172,132L164,132ZM196,124L212,124L212,132L196,132ZM220,124L236,124L236,132L220,132ZM252,124L284,124L284,132L252,132ZM20,132L36,132L36,140L20,140ZM44,132L60,132L60,140L44,140ZM76,132L92,132L92,140L76,140ZM100,132L116,132L116,140L100,140ZM124,132L148,132L148,140L124,140ZM164,132L180,132L180,140L164,140ZM196,132L212,132L212,140L196,140ZM236,132L244,132L244,140L236,140ZM252,132L268,132L268,140L252,140ZM276,132L284,132L284,140L276,140ZM300,132L308,132L308,140L300,140ZM12,140L20,140L20,148L12,148ZM44,140L84,140L84,148L44,148ZM92,140L100,140L100,148L92,148ZM116,140L132,140L132,148L116,148ZM140,140L148,140L148,148L140,148ZM156,140L172,140L172,148L156,148ZM180,140L188,140L188,148L180,148ZM196,140L276,140L276,148L196,148ZM284,140L292,140L292,148L284,148ZM300,140L308,140L308,148L300,148ZM20,148L28,148L28,156L20,156ZM36,148L60,148L60,156L36,156ZM84,148L92,148L92,156L84,156ZM116,148L132,148L132,156L116,156ZM156,148L164,148L164,156L156,156ZM172,148L180,148L180,156L172,156ZM204,148L212,148L212,156L204,156ZM244,148L252,148L252,156L244,156ZM292,148L300,148L300,156L292,156ZM20,156L28,156L28,164L20,164ZM44,156L108,156L108,164L44,164ZM132,156L148,156L148,164L132,164ZM172,156L180,156L180,164L172,164ZM204,156L220,156L220,164L204,164ZM228,156L268,156L268,164L228,164ZM276,156L284,156L284,164L276,164ZM292,156L308,156L308,164L292,164ZM20,164L28,164L28,172L20,172ZM36,164L44,164L44,172L36,172ZM68,164L76,164L76,172L68,172ZM92,164L100,164L100,172L92,172ZM116,164L124,164L124,172L116,172ZM148,164L156,164L156,172L148,172ZM164,164L180,164L180,172L164,172ZM196,164L212,164L212,172L196,172ZM228,164L236,164L236,172L228,172ZM252,164L260,164L260,172L252,172ZM300,164L308,164L308,172L300,172ZM12,172L20,172L20,180L12,180ZM28,172L44,172L44,180L28,180ZM52,172L68,172L68,180L52,180ZM100,172L124,172L124,180L100,180ZM132,172L148,172L148,180L132,180ZM164,172L172,172L172,180L164,180ZM180,172L188,172L188,180L180,180ZM196,172L220,172L220,180L196,180ZM228,172L236,172L236,180L228,180ZM244,172L260,172L260,180L244,180ZM268,172L292,172L292,180L268,180ZM300,172L308,172L308,180L300,180ZM20,180L36,180L36,188L20,188ZM44,180L60,180L60,188L44,188ZM68,180L76,180L76,188L68,188ZM84,180L100,180L100,188L84,188ZM108,180L116,180L116,188L108,188ZM156,180L164,180L164,188L156,188ZM188,180L196,180L196,188L188,188ZM236,180L244,180L244,188L236,188ZM260,180L268,180L268,188L260,188ZM276,180L284,180L284,188L276,188ZM292,180L308,180L308,188L292,188ZM12,188L36,188L36,196L12,196ZM60,188L68,188L68,196L60,196ZM84,188L92,188L92,196L84,196ZM108,188L148,188L148,196L108,196ZM164,188L180,188L180,196L164,196ZM188,188L204,188L204,196L188,196ZM228,188L244,188L244,196L228,196ZM252,188L268,188L268,196L252,196ZM284,188L308,188L308,196L284,196ZM36,196L44,196L44,204L36,204ZM52,196L60,196L60,204L52,204ZM68,196L116,196L116,204L68,204ZM124,196L140,196L140,204L124,204ZM164,196L180,196L180,204L164,204ZM196,196L212,196L212,204L196,204ZM228,196L252,196L252,204L228,204ZM260,196L268,196L268,204L260,204ZM292,196L300,196L300,204L292,204ZM12,204L20,204L20,212L12,212ZM36,204L44,204L44,212L36,212ZM52,204L68,204L68,212L52,212ZM84,204L92,204L92,212L84,212ZM116,204L140,204L140,212L116,212ZM148,204L156,204L156,212L148,212ZM164,204L172,204L172,212L164,212ZM180,204L204,204L204,212L180,212ZM212,204L276,204L276,212L212,212ZM284,204L292,204L292,212L284,212ZM300,204L308,204L308,212L300,212ZM20,212L36,212L36,220L20,220ZM44,212L60,212L60,220L44,220ZM76,212L92,212L92,220L76,220ZM116,212L132,212L132,220L116,220ZM164,212L172,212L172,220L164,220ZM204,212L212,212L212,220L204,220ZM220,212L228,212L228,220L220,220ZM236,212L268,212L268,220L236,220ZM276,212L284,212L284,220L276,220ZM12,220L28,220L28,228L12,228ZM36,220L44,220L44,228L36,228ZM52,220L68,220L68,228L52,228ZM84,220L92,220L92,228L84,228ZM100,220L108,220L108,228L100,228ZM132,220L148,220L148,228L132,228ZM164,220L172,220L172,228L164,228ZM180,220L188,220L188,228L180,228ZM204,220L212,220L212,228L204,228ZM236,220L244,220L244,228L236,228ZM252,220L268,220L268,228L252,228ZM284,220L308,220L308,228L284,228ZM28,228L44,228L44,236L28,236ZM68,228L100,228L100,236L68,236ZM116,228L124,228L124,236L116,236ZM132,228L148,228L148,236L132,236ZM172,228L180,228L180,236L172,236ZM196,228L212,228L212,236L196,236ZM220,228L244,228L244,236L220,236ZM252,228L268,228L268,236L252,236ZM292,228L300,228L300,236L292,236ZM12,236L36,236L36,244L12,244ZM44,236L52,236L52,244L44,244ZM60,236L68,236L68,244L60,244ZM84,236L124,236L124,244L84,244ZM132,236L156,236L156,244L132,244ZM164,236L188,236L188,244L164,244ZM196,236L204,236L204,244L196,244ZM212,236L220,236L220,244L212,244ZM228,236L284,236L284,244L228,244ZM300,236L308,236L308,244L300,244ZM76,244L92,244L92,252L76,252ZM108,244L116,244L116,252L108,252ZM140,244L148,244L148,252L140,252ZM156,244L164,244L164,252L156,252ZM236,244L244,244L244,252L236,252ZM268,244L276,244L276,252L268,252ZM12,252L68,252L68,260L12,260ZM108,252L140,252L140,260L108,260ZM156,252L180,252L180,260L156,260ZM196,252L212,252L212,260L196,260ZM228,252L244,252L244,260L228,260ZM252,252L260,252L260,260L252,260ZM268,252L284,252L284,260L268,260ZM300,252L308,252L308,260L300,260ZM12,260L20,260L20,268L12,268ZM60,260L68,260L68,268L60,268ZM76,260L92,260L92,268L76,268ZM100,260L116,260L116,268L100,268ZM124,260L148,260L148,268L124,268ZM164,260L172,260L172,268L164,268ZM196,260L212,260L212,268L196,268ZM236,260L244,260L244,268L236,268ZM268,260L276,260L276,268L268,268ZM300,260L308,260L308,268L300,268ZM12,268L20,268L20,276L12,276ZM28,268L52,268L52,276L28,276ZM60,268L68,268L68,276L60,276ZM84,268L92,268L92,276L84,276ZM116,268L140,268L140,276L116,276ZM148,268L172,268L172,276L148,276ZM180,268L204,268L204,276L180,276ZM212,268L300,268L300,276L212,276ZM12,276L20,276L20,284L12,284ZM28,276L52,276L52,284L28,284ZM60,276L68,276L68,284L60,284ZM84,276L100,276L100,284L84,284ZM116,276L132,276L132,284L116,284ZM188,276L204,276L204,284L188,284ZM220,276L244,276L244,284L220,284ZM260,276L284,276L284,284L260,284ZM292,276L300,276L300,284L292,284ZM12,284L20,284L20,292L12,292ZM28,284L52,284L52,292L28,292ZM60,284L68,284L68,292L60,292ZM76,284L84,284L84,292L76,292ZM92,284L108,284L108,292L92,292ZM132,284L156,284L156,292L132,292ZM164,284L180,284L180,292L164,292ZM196,284L204,284L204,292L196,292ZM220,284L228,284L228,292L220,292ZM236,284L244,284L244,292L236,292ZM252,284L260,284L260,292L252,292ZM276,284L308,284L308,292L276,292ZM12,292L20,292L20,300L12,300ZM60,292L68,292L68,300L60,300ZM76,292L84,292L84,300L76,300ZM92,292L100,292L100,300L92,300ZM116,292L124,292L124,300L116,300ZM132,292L148,292L148,300L132,300ZM164,292L180,292L180,300L164,300ZM188,292L196,292L196,300L188,300ZM204,292L212,292L212,300L204,300ZM228,292L236,292L236,300L228,300ZM244,292L252,292L252,300L244,300ZM268,292L276,292L276,300L268,300ZM292,292L308,292L308,300L292,300ZM12,300L68,300L68,308L12,308ZM76,300L124,300L124,308L76,308ZM132,300L156,300L156,308L132,308ZM164,300L188,300L188,308L164,308ZM196,300L228,300L228,308L196,308ZM244,300L252,300L252,308L244,308ZM268,300L276,300L276,308L268,308ZM300,300L308,300L308,308L300,308Z"/></svg>
