<?xml version="1.0"?>
<svg xmlns="http://www.w3.org/2000/svg" xmlns:xlink="http://www.w3.org/1999/xlink" version="1.1" width="320px" height="320px" viewBox="0 0 320 320"><rect x="0" y="0" width="320" height="320" fill="#ffffff" fill-opacity="1"/><path fill="#000000" fill-opacity="1" d="M44,44L65,44L65,47L44,47ZM71,44L86,44L86,47L71,47ZM89,44L92,44L92,47L89,47ZM95,44L101,44L101,47L95,47ZM113,44L116,44L116,47L113,47ZM122,44L128,44L128,47L122,47ZM134,44L140,44L140,47L134,47ZM149,44L155,44L155,47L149,47ZM161,44L164,44L164,47L161,47ZM167,44L173,44L173,47L167,47ZM176,44L191,44L191,47L176,47ZM194,44L200,44L200,47L194,47ZM203,44L215,44L215,47L203,47ZM221,44L224,44L224,47L221,47ZM227,44L236,44L236,47L227,47ZM239,44L242,44L242,47L239,47ZM254,44L275,44L275,47L254,47ZM44,47L47,47L47,50L44,50ZM62,47L65,47L65,50L62,50ZM68,47L71,47L71,50L68,50ZM74,47L77,47L77,50L74,50ZM83,47L86,47L86,50L83,50ZM98,47L101,47L101,50L98,50ZM104,47L107,47L107,50L104,50ZM119,47L125,47L125,50L119,50ZM131,47L134,47L134,50L131,50ZM137,47L146,47L146,50L137,50ZM158,47L164,47L164,50L158,50ZM173,47L176,47L176,50L173,50ZM182,47L194,47L194,50L182,50ZM200,47L215,47L215,50L200,50ZM218,47L221,47L221,50L218,50ZM230,47L233,47L233,50L230,50ZM236,47L239,47L239,50L236,50ZM242,47L245,47L245,50L242,50ZM248,47L251,47L251,50L248,50ZM254,47L257,47L257,50L254,50ZM272,47L275,47L275,50L272,50ZM44,50L47,50L47,53L44,53ZM50,50L59,50L59,53L50,53ZM62,50L65,50L65,53L62,53ZM77,50L86,50L86,53L77,53ZM92,50L98,50L98,53L92,53ZM101,50L110,50L110,53L101,53ZM116,50L125,50L125,53L116,53ZM128,50L131,50L131,53L128,53ZM146,50L161,50L161,53L146,53ZM164,50L173,50L173,53L164,53ZM176,50L179,50L179,53L176,53ZM182,50L188,50L188,53L182,53ZM194,50L197,50L197,53L194,53ZM200,50L206,50L206,53L200,53ZM209,50L218,50L218,53L209,53ZM221,50L224,50L224,53L221,53ZM233,50L239,50L239,53L233,53ZM248,50L251,50L251,53L248,53ZM254,50L257,50L257,53L254,53ZM260,50L269,50L269,53L260,53ZM272,50L275,50L275,53L272,53ZM44,53L47,53L47,56L44,56ZM50,53L59,53L59,56L50,56ZM62,53L65,53L65,56L62,56ZM71,53L77,53L77,56L71,56ZM80,53L83,53L83,56L80,56ZM92,53L98,53L98,56L92,56ZM107,53L113,53L113,56L107,56ZM131,53L137,53L137,56L131,56ZM143,53L146,53L146,56L143,56ZM149,53L158,53L158,56L149,56ZM161,53L164,53L164,56L161,56ZM167,53L170,53L170,56L167,56ZM188,53L191,53L191,56L188,56ZM200,53L209,53L209,56L200,56ZM212,53L215,53L215,56L212,56ZM218,53L221,53L221,56L218,56ZM227,53L242,53L242,56L227,56ZM248,53L251,53L251,56L248,56ZM254,53L257,53L257,56L254,56ZM260,53L269,53L269,56L260,56ZM272,53L275,53L275,56L272,56ZM44,56L47,56L47,59L44,59ZM50,56L59,56L59,59L50,59ZM62,56L65,56L65,59L62,59ZM71,56L77,56L77,59L71,59ZM83,56L86,56L86,59L83,59ZM89,56L95,56L95,59L89,59ZM98,56L104,56L104,59L98,59ZM113,56L140,56L140,59L113,59ZM143,56L152,56L152,59L143,59ZM158,56L161,56L161,59L158,59ZM164,56L167,56L167,59L164,59ZM170,56L173,56L173,59L170,59ZM176,56L179,56L179,59L176,59ZM182,56L200,56L200,59L182,59ZM221,56L224,56L224,59L221,59ZM230,56L239,56L239,59L230,59ZM242,56L251,56L251,59L242,59ZM254,56L257,56L257,59L254,59ZM260,56L269,56L269,59L260,59ZM272,56L275,56L275,59L272,59ZM44,59L47,59L47,62L44,62ZM62,59L65,59L65,62L62,62ZM68,59L80,59L80,62L68,62ZM83,59L92,59L92,62L83,62ZM104,59L113,59L113,62L104,62ZM116,59L119,59L119,62L116,62ZM128,59L131,59L131,62L128,62ZM140,59L143,59L143,62L140,62ZM146,59L152,59L152,62L146,62ZM173,59L179,59L179,62L173,62ZM182,59L185,59L185,62L182,62ZM194,59L197,59L197,62L194,62ZM200,59L203,59L203,62L200,62ZM209,59L212,59L212,62L209,62ZM215,59L218,59L218,62L215,62ZM224,59L227,59L227,62L224,62ZM236,59L239,59L239,62L236,62ZM242,59L245,59L245,62L242,62ZM254,59L257,59L257,62L254,62ZM272,59L275,59L275,62L272,62ZM44,62L65,62L65,65L44,65ZM68,62L71,62L71,65L68,65ZM74,62L77,62L77,65L74,65ZM80,62L83,62L83,65L80,65ZM86,62L89,62L89,65L86,65ZM92,62L95,62L95,65L92,65ZM98,62L101,62L101,65L98,65ZM104,62L107,62L107,65L104,65ZM110,62L113,62L113,65L110,65ZM116,62L119,62L119,65L116,65ZM122,62L125,62L125,65L122,65ZM128,62L131,62L131,65L128,65ZM134,62L137,62L137,65L134,65ZM140,62L143,62L143,65L140,65ZM146,62L149,62L149,65L146,65ZM152,62L155,62L155,65L152,65ZM158,62L161,62L161,65L158,65ZM164,62L167,62L167,65L164,65ZM170,62L173,62L173,65L170,65ZM176,62L179,62L179,65L176,65ZM182,62L185,62L185,65L182,65ZM188,62L191,62L191,65L188,65ZM194,62L197,62L197,65L194,65ZM200,62L203,62L203,65L200,65ZM206,62L209,62L209,65L206,65ZM212,62L215,62L215,65L212,65ZM218,62L221,62L221,65L218,65ZM224,62L227,62L227,65L224,65ZM230,62L233,62L233,65L230,65ZM236,62L239,62L239,65L236,65ZM242,62L245,62L245,65L242,65ZM248,62L251,62L251,65L248,65ZM254,62L275,62L275,65L254,65ZM68,65L71,65L71,68L68,68ZM77,65L80,65L80,68L77,68ZM86,65L98,65L98,68L86,68ZM101,65L104,65L104,68L101,68ZM107,65L110,65L110,68L107,68ZM116,65L119,65L119,68L116,68ZM128,65L131,65L131,68L128,68ZM134,65L152,65L152,68L134,68ZM155,65L158,65L158,68L155,68ZM161,65L164,65L164,68L161,68ZM167,65L176,65L176,68L167,68ZM182,65L185,65L185,68L182,68ZM194,65L206,65L206,68L194,68ZM215,65L224,65L224,68L215,68ZM230,65L236,65L236,68L230,68ZM239,65L242,65L242,68L239,68ZM56,68L68,68L68,71L56,71ZM71,68L77,68L77,71L71,71ZM83,68L86,68L86,71L83,71ZM92,68L98,68L98,71L92,71ZM104,68L107,68L107,71L104,71ZM113,68L131,68L131,71L113,71ZM149,68L152,68L152,71L149,71ZM155,68L161,68L161,71L155,71ZM164,68L179,68L179,71L164,71ZM182,68L206,68L206,71L182,71ZM215,68L218,68L218,71L215,71ZM224,68L227,68L227,71L224,71ZM230,68L233,68L233,71L230,71ZM236,68L242,68L242,71L236,71ZM245,68L251,68L251,71L245,71ZM254,68L260,68L260,71L254,71ZM269,68L272,68L272,71L269,71ZM44,71L47,71L47,74L44,74ZM56,71L59,71L59,74L56,74ZM68,71L74,71L74,74L68,74ZM77,71L83,71L83,74L77,74ZM86,71L89,71L89,74L86,74ZM98,71L101,71L101,74L98,74ZM110,71L113,71L113,74L110,74ZM122,71L131,71L131,74L122,74ZM137,71L143,71L143,74L137,74ZM152,71L158,71L158,74L152,74ZM170,71L176,71L176,74L170,74ZM179,71L182,71L182,74L179,74ZM185,71L194,71L194,74L185,74ZM200,71L203,71L203,74L200,74ZM218,71L239,71L239,74L218,74ZM242,71L245,71L245,74L242,74ZM248,71L251,71L251,74L248,74ZM254,71L263,71L263,74L254,74ZM44,74L56,74L56,77L44,77ZM62,74L68,74L68,77L62,77ZM71,74L77,74L77,77L71,77ZM83,74L86,74L86,77L83,77ZM89,74L104,74L104,77L89,77ZM110,74L113,74L113,77L110,77ZM134,74L140,74L140,77L134,77ZM143,74L146,74L146,77L143,77ZM158,74L161,74L161,77L158,77ZM170,74L176,74L176,77L170,77ZM179,74L185,74L185,77L179,77ZM191,74L194,74L194,77L191,77ZM197,74L200,74L200,77L197,77ZM203,74L206,74L206,77L203,77ZM212,74L227,74L227,77L212,77ZM233,74L251,74L251,77L233,77ZM254,74L260,74L260,77L254,77ZM266,74L269,74L269,77L266,77ZM272,74L275,74L275,77L272,77ZM44,77L47,77L47,80L44,80ZM53,77L56,77L56,80L53,80ZM65,77L68,77L68,80L65,80ZM71,77L74,77L74,80L71,80ZM77,77L80,77L80,80L77,80ZM86,77L98,77L98,80L86,80ZM116,77L119,77L119,80L116,80ZM128,77L134,77L134,80L128,80ZM137,77L143,77L143,80L137,80ZM146,77L149,77L149,80L146,80ZM161,77L164,77L164,80L161,80ZM176,77L188,77L188,80L176,80ZM194,77L197,77L197,80L194,80ZM200,77L206,77L206,80L200,80ZM209,77L218,77L218,80L209,80ZM221,77L227,77L227,80L221,80ZM233,77L245,77L245,80L233,80ZM254,77L260,77L260,80L254,80ZM263,77L269,77L269,80L263,80ZM44,80L47,80L47,83L44,83ZM50,80L53,80L53,83L50,83ZM62,80L65,80L65,83L62,83ZM74,80L77,80L77,83L74,83ZM83,80L86,80L86,83L83,83ZM95,80L98,80L98,83L95,83ZM101,80L110,80L110,83L101,83ZM119,80L122,80L122,83L119,83ZM134,80L143,80L143,83L134,83ZM146,80L149,80L149,83L146,83ZM158,80L161,80L161,83L158,83ZM164,80L167,80L167,83L164,83ZM170,80L182,80L182,83L170,83ZM188,80L200,80L200,83L188,83ZM203,80L206,80L206,83L203,83ZM209,80L221,80L221,83L209,83ZM224,80L227,80L227,83L224,83ZM230,80L233,80L233,83L230,83ZM239,80L245,80L245,83L239,83ZM248,80L254,80L254,83L248,83ZM263,80L272,80L272,83L263,83ZM53,83L56,83L56,86L53,86ZM59,83L62,83L62,86L59,86ZM65,83L68,83L68,86L65,86ZM71,83L83,83L83,86L71,86ZM86,83L92,83L92,86L86,86ZM95,83L98,83L98,86L95,86ZM104,83L107,83L107,86L104,86ZM116,83L119,83L119,86L116,86ZM122,83L128,83L128,86L122,86ZM134,83L137,83L137,86L134,86ZM140,83L170,83L170,86L140,86ZM173,83L179,83L179,86L173,86ZM182,83L185,83L185,86L182,86ZM191,83L194,83L194,86L191,86ZM203,83L209,83L209,86L203,86ZM218,83L224,83L224,86L218,86ZM227,83L236,83L236,86L227,86ZM242,83L251,83L251,86L242,86ZM260,83L266,83L266,86L260,86ZM44,86L50,86L50,89L44,89ZM53,86L56,86L56,89L53,89ZM62,86L65,86L65,89L62,89ZM68,86L71,86L71,89L68,89ZM83,86L86,86L86,89L83,89ZM89,86L95,86L95,89L89,89ZM101,86L113,86L113,89L101,89ZM122,86L125,86L125,89L122,89ZM128,86L134,86L134,89L128,89ZM137,86L143,86L143,89L137,89ZM146,86L149,86L149,89L146,89ZM152,86L155,86L155,89L152,89ZM158,86L167,86L167,89L158,89ZM179,86L182,86L182,89L179,89ZM185,86L191,86L191,89L185,89ZM194,86L203,86L203,89L194,89ZM206,86L209,86L209,89L206,89ZM215,86L218,86L218,89L215,89ZM221,86L224,86L224,89L221,89ZM233,86L239,86L239,89L233,89ZM245,86L248,86L248,89L245,89ZM254,86L260,86L260,89L254,89ZM266,86L275,86L275,89L266,89ZM47,89L50,89L50,92L47,92ZM53,89L59,89L59,92L53,92ZM68,89L83,89L83,92L68,92ZM86,89L89,89L89,92L86,92ZM92,89L95,89L95,92L92,92ZM98,89L101,89L101,92L98,92ZM104,89L113,89L113,92L104,92ZM128,89L131,89L131,92L128,92ZM134,89L143,89L143,92L134,92ZM146,89L149,89L149,92L146,92ZM161,89L164,89L164,92L161,92ZM176,89L179,89L179,92L176,92ZM182,89L188,89L188,92L182,92ZM191,89L200,89L200,92L191,92ZM203,89L209,89L209,92L203,92ZM212,89L221,89L221,92L212,92ZM236,89L242,89L242,92L236,92ZM248,89L260,89L260,92L248,92ZM263,89L266,89L266,92L263,92ZM269,89L272,89L272,92L269,92ZM44,92L47,92L47,95L44,95ZM50,92L53,92L53,95L50,95ZM56,92L68,92L68,95L56,95ZM74,92L80,92L80,95L74,95ZM86,92L89,92L89,95L86,95ZM92,92L98,92L98,95L92,95ZM101,92L104,92L104,95L101,95ZM116,92L119,92L119,95L116,95ZM122,92L128,92L128,95L122,95ZM131,92L134,92L134,95L131,95ZM140,92L146,92L146,95L140,95ZM149,92L152,92L152,95L149,95ZM155,92L167,92L167,95L155,95ZM170,92L176,92L176,95L170,95ZM185,92L191,92L191,95L185,95ZM194,92L200,92L200,95L194,95ZM203,92L209,92L209,95L203,95ZM212,92L221,92L221,95L212,95ZM224,92L227,92L227,95L224,95ZM230,92L236,92L236,95L230,95ZM239,92L254,92L254,95L239,95ZM263,92L269,92L269,95L263,95ZM47,95L53,95L53,98L47,98ZM65,95L71,95L71,98L65,98ZM80,95L86,95L86,98L80,98ZM89,95L92,95L92,98L89,98ZM95,95L98,95L98,98L95,98ZM110,95L113,95L113,98L110,98ZM116,95L119,95L119,98L116,98ZM125,95L131,95L131,98L125,98ZM143,95L149,95L149,98L143,98ZM155,95L161,95L161,98L155,98ZM164,95L170,95L170,98L164,98ZM173,95L176,95L176,98L173,98ZM182,95L188,95L188,98L182,98ZM200,95L203,95L203,98L200,98ZM206,95L209,95L209,98L206,98ZM212,95L215,95L215,98L212,98ZM218,95L227,95L227,98L218,98ZM242,95L248,95L248,98L242,98ZM254,95L257,95L257,98L254,98ZM260,95L275,95L275,98L260,98ZM47,98L50,98L50,101L47,101ZM56,98L59,98L59,101L56,101ZM62,98L65,98L65,101L62,101ZM71,98L74,98L74,101L71,101ZM77,98L80,98L80,101L77,101ZM89,98L95,98L95,101L89,101ZM98,98L101,98L101,101L98,101ZM110,98L113,98L113,101L110,101ZM116,98L122,98L122,101L116,101ZM125,98L134,98L134,101L125,101ZM143,98L146,98L146,101L143,101ZM149,98L155,98L155,101L149,101ZM179,98L185,98L185,101L179,101ZM188,98L191,98L191,101L188,101ZM200,98L206,98L206,101L200,101ZM218,98L230,98L230,101L218,101ZM233,98L239,98L239,101L233,101ZM245,98L248,98L248,101L245,101ZM257,98L260,98L260,101L257,101ZM266,98L275,98L275,101L266,101ZM47,101L50,101L50,104L47,104ZM56,101L62,101L62,104L56,104ZM65,101L92,101L92,104L65,104ZM101,101L104,101L104,104L101,104ZM107,101L116,101L116,104L107,104ZM119,101L122,101L122,104L119,104ZM131,101L140,101L140,104L131,104ZM143,101L146,101L146,104L143,104ZM149,101L152,101L152,104L149,104ZM155,101L158,101L158,104L155,104ZM161,101L164,101L164,104L161,104ZM167,101L176,101L176,104L167,104ZM182,101L185,101L185,104L182,104ZM188,101L200,101L200,104L188,104ZM203,101L206,101L206,104L203,104ZM209,101L212,101L212,104L209,104ZM215,101L227,101L227,104L215,104ZM233,101L242,101L242,104L233,104ZM248,101L251,101L251,104L248,104ZM254,101L257,101L257,104L254,104ZM260,101L263,101L263,104L260,104ZM47,104L53,104L53,107L47,107ZM62,104L71,104L71,107L62,107ZM77,104L83,104L83,107L77,107ZM86,104L95,104L95,107L86,107ZM98,104L101,104L101,107L98,107ZM104,104L110,104L110,107L104,107ZM128,104L131,104L131,107L128,107ZM134,104L137,104L137,107L134,107ZM140,104L149,104L149,107L140,107ZM152,104L155,104L155,107L152,107ZM158,104L164,104L164,107L158,107ZM170,104L194,104L194,107L170,107ZM197,104L200,104L200,107L197,107ZM203,104L212,104L212,107L203,107ZM215,104L218,104L218,107L215,107ZM239,104L245,104L245,107L239,107ZM248,104L254,104L254,107L248,107ZM263,104L266,104L266,107L263,107ZM269,104L272,104L272,107L269,107ZM44,107L47,107L47,110L44,110ZM53,107L56,107L56,110L53,110ZM59,107L62,107L62,110L59,110ZM80,107L83,107L83,110L80,110ZM92,107L101,107L101,110L92,110ZM113,107L116,107L116,110L113,110ZM128,107L131,107L131,110L128,110ZM137,107L146,107L146,110L137,110ZM149,107L170,107L170,110L149,110ZM173,107L176,107L176,110L173,110ZM182,107L185,107L185,110L182,110ZM194,107L212,107L212,110L194,110ZM221,107L224,107L224,110L221,110ZM227,107L236,107L236,110L227,110ZM242,107L245,107L245,110L242,110ZM251,107L257,107L257,110L251,110ZM260,107L263,107L263,110L260,110ZM266,107L275,107L275,110L266,110ZM44,110L53,110L53,113L44,113ZM62,110L74,110L74,113L62,113ZM89,110L92,110L92,113L89,113ZM95,110L104,110L104,113L95,113ZM107,110L125,110L125,113L107,113ZM128,110L131,110L131,113L128,113ZM134,110L143,110L143,113L134,113ZM146,110L158,110L158,113L146,113ZM164,110L170,110L170,113L164,113ZM173,110L179,110L179,113L173,113ZM182,110L185,110L185,113L182,113ZM188,110L191,110L191,113L188,113ZM203,110L209,110L209,113L203,113ZM215,110L224,110L224,113L215,113ZM230,110L236,110L236,113L230,113ZM239,110L242,110L242,113L239,113ZM245,110L257,110L257,113L245,113ZM260,110L263,110L263,113L260,113ZM266,110L275,110L275,113L266,113ZM47,113L53,113L53,116L47,116ZM56,113L59,113L59,116L56,116ZM65,113L77,113L77,116L65,116ZM80,113L92,113L92,116L80,116ZM98,113L101,113L101,116L98,116ZM119,113L122,113L122,116L119,116ZM128,113L131,113L131,116L128,116ZM140,113L146,113L146,116L140,116ZM152,113L155,113L155,116L152,116ZM158,113L164,113L164,116L158,116ZM167,113L170,113L170,116L167,116ZM173,113L179,113L179,116L173,116ZM188,113L206,113L206,116L188,116ZM209,113L212,113L212,116L209,116ZM215,113L224,113L224,116L215,116ZM230,113L242,113L242,116L230,116ZM248,113L254,113L254,116L248,116ZM260,113L263,113L263,116L260,116ZM269,113L275,113L275,116L269,116ZM44,116L47,116L47,119L44,119ZM53,116L92,116L92,119L53,119ZM95,116L98,116L98,119L95,119ZM104,116L107,116L107,119L104,119ZM110,116L113,116L113,119L110,119ZM116,116L131,116L131,119L116,119ZM134,116L137,116L137,119L134,119ZM140,116L146,116L146,119L140,119ZM152,116L155,116L155,119L152,119ZM158,116L164,116L164,119L158,119ZM167,116L173,116L173,119L167,119ZM179,116L197,116L197,119L179,119ZM200,116L209,116L209,119L200,119ZM212,116L218,116L218,119L212,119ZM224,116L227,116L227,119L224,119ZM230,116L233,116L233,119L230,119ZM236,116L239,116L239,119L236,119ZM245,116L263,116L263,119L245,119ZM266,116L272,116L272,119L266,119ZM44,119L47,119L47,122L44,122ZM56,119L59,119L59,122L56,122ZM68,119L71,119L71,122L68,122ZM74,119L80,119L80,122L74,122ZM107,119L110,119L110,122L107,122ZM116,119L119,119L119,122L116,122ZM128,119L131,119L131,122L128,122ZM140,119L146,119L146,122L140,122ZM152,119L155,119L155,122L152,122ZM161,119L164,119L164,122L161,122ZM167,119L173,119L173,122L167,122ZM179,119L185,119L185,122L179,122ZM194,119L197,119L197,122L194,122ZM206,119L215,119L215,122L206,122ZM221,119L233,119L233,122L221,122ZM242,119L251,119L251,122L242,122ZM260,119L263,119L263,122L260,122ZM266,119L275,119L275,122L266,122ZM44,122L47,122L47,125L44,125ZM53,122L59,122L59,125L53,125ZM62,122L65,122L65,125L62,125ZM68,122L71,122L71,125L68,125ZM86,122L89,122L89,125L86,125ZM92,122L119,122L119,125L92,125ZM122,122L125,122L125,125L122,125ZM128,122L131,122L131,125L128,125ZM134,122L155,122L155,125L134,125ZM158,122L164,122L164,125L158,125ZM167,122L170,122L170,125L167,125ZM173,122L179,122L179,125L173,125ZM182,122L185,122L185,125L182,125ZM188,122L191,122L191,125L188,125ZM194,122L200,122L200,125L194,125ZM203,122L206,122L206,125L203,125ZM212,122L224,122L224,125L212,125ZM227,122L230,122L230,125L227,125ZM233,122L245,122L245,125L233,125ZM248,122L251,122L251,125L248,125ZM254,122L257,122L257,125L254,125ZM260,122L263,122L263,125L260,125ZM266,122L275,122L275,125L266,125ZM44,125L47,125L47,128L44,128ZM53,125L59,125L59,128L53,128ZM68,125L71,125L71,128L68,128ZM98,125L101,125L101,128L98,128ZM104,125L107,125L107,128L104,128ZM113,125L119,125L119,128L113,128ZM128,125L131,125L131,128L128,128ZM140,125L149,125L149,128L140,128ZM161,125L164,125L164,128L161,128ZM167,125L170,125L170,128L167,128ZM173,125L176,125L176,128L173,128ZM179,125L185,125L185,128L179,128ZM194,125L200,125L200,128L194,128ZM203,125L206,125L206,128L203,128ZM212,125L224,125L224,128L212,128ZM239,125L242,125L242,128L239,128ZM245,125L251,125L251,128L245,128ZM260,125L263,125L263,128L260,128ZM269,125L272,125L272,128L269,128ZM44,128L47,128L47,131L44,131ZM56,128L77,128L77,131L56,131ZM83,128L92,128L92,131L83,131ZM95,128L98,128L98,131L95,131ZM101,128L131,128L131,131L101,131ZM134,128L140,128L140,131L134,131ZM161,128L164,128L164,131L161,131ZM173,128L176,128L176,131L173,131ZM179,128L197,128L197,131L179,131ZM206,128L209,128L209,131L206,131ZM212,128L218,128L218,131L212,131ZM224,128L227,128L227,131L224,131ZM233,128L236,128L236,131L233,131ZM245,128L263,128L263,131L245,131ZM266,128L272,128L272,131L266,131ZM44,131L47,131L47,134L44,134ZM53,131L56,131L56,134L53,134ZM59,131L62,131L62,134L59,134ZM71,131L74,131L74,134L71,134ZM83,131L89,131L89,134L83,134ZM101,131L104,131L104,134L101,134ZM107,131L110,131L110,134L107,134ZM113,131L116,131L116,134L113,134ZM122,131L125,131L125,134L122,134ZM131,131L140,131L140,134L131,134ZM143,131L152,131L152,134L143,134ZM164,131L167,131L167,134L164,134ZM173,131L191,131L191,134L173,134ZM200,131L203,131L203,134L200,134ZM206,131L209,131L209,134L206,134ZM221,131L239,131L239,134L221,134ZM242,131L251,131L251,134L242,134ZM263,131L269,131L269,134L263,134ZM44,134L53,134L53,137L44,137ZM59,134L71,134L71,137L59,137ZM77,134L80,134L80,137L77,137ZM83,134L92,134L92,137L83,137ZM95,134L110,134L110,137L95,137ZM113,134L119,134L119,137L113,137ZM122,134L131,134L131,137L122,137ZM137,134L164,134L164,137L137,137ZM167,134L170,134L170,137L167,137ZM182,134L185,134L185,137L182,137ZM191,134L194,134L194,137L191,137ZM197,134L206,134L206,137L197,137ZM215,134L236,134L236,137L215,137ZM239,134L248,134L248,137L239,137ZM251,134L254,134L254,137L251,137ZM266,134L269,134L269,137L266,137ZM272,134L275,134L275,137L272,137ZM44,137L47,137L47,140L44,140ZM56,137L62,137L62,140L56,140ZM65,137L68,137L68,140L65,140ZM74,137L80,137L80,140L74,140ZM86,137L89,137L89,140L86,140ZM92,137L95,137L95,140L92,140ZM98,137L107,137L107,140L98,140ZM116,137L119,137L119,140L116,140ZM140,137L143,137L143,140L140,140ZM146,137L149,137L149,140L146,140ZM152,137L158,137L158,140L152,140ZM161,137L164,137L164,140L161,140ZM176,137L179,137L179,140L176,140ZM185,137L188,137L188,140L185,140ZM191,137L194,137L194,140L191,140ZM197,137L203,137L203,140L197,140ZM215,137L224,137L224,140L215,140ZM230,137L233,137L233,140L230,140ZM239,137L245,137L245,140L239,140ZM248,137L260,137L260,140L248,140ZM47,140L53,140L53,143L47,143ZM62,140L65,140L65,143L62,143ZM71,140L74,140L74,143L71,143ZM80,140L86,140L86,143L80,143ZM98,140L107,140L107,143L98,143ZM110,140L113,140L113,143L110,143ZM116,140L128,140L128,143L116,143ZM131,140L137,140L137,143L131,143ZM146,140L149,140L149,143L146,143ZM152,140L155,140L155,143L152,143ZM158,140L161,140L161,143L158,143ZM179,140L182,140L182,143L179,143ZM188,140L197,140L197,143L188,143ZM203,140L206,140L206,143L203,143ZM209,140L218,140L218,143L209,143ZM227,140L236,140L236,143L227,143ZM239,140L248,140L248,143L239,143ZM260,140L272,140L272,143L260,143ZM44,143L50,143L50,146L44,146ZM65,143L86,143L86,146L65,146ZM89,143L113,143L113,146L89,146ZM116,143L119,143L119,146L116,146ZM125,143L128,143L128,146L125,146ZM137,143L152,143L152,146L137,146ZM155,143L167,143L167,146L155,146ZM173,143L179,143L179,146L173,146ZM182,143L188,143L188,146L182,146ZM194,143L200,143L200,146L194,146ZM203,143L209,143L209,146L203,146ZM212,143L215,143L215,146L212,146ZM224,143L227,143L227,146L224,146ZM230,143L242,143L242,146L230,146ZM248,143L254,143L254,146L248,146ZM266,143L269,143L269,146L266,146ZM47,146L56,146L56,149L47,149ZM59,146L65,146L65,149L59,149ZM77,146L80,146L80,149L77,149ZM83,146L92,146L92,149L83,149ZM95,146L98,146L98,149L95,149ZM101,146L104,146L104,149L101,149ZM107,146L110,146L110,149L107,149ZM113,146L119,146L119,149L113,149ZM134,146L143,146L143,149L134,149ZM146,146L149,146L149,149L146,149ZM176,146L179,146L179,149L176,149ZM185,146L194,146L194,149L185,149ZM197,146L200,146L200,149L197,149ZM203,146L209,146L209,149L203,149ZM218,146L224,146L224,149L218,149ZM227,146L230,146L230,149L227,149ZM233,146L239,146L239,149L233,149ZM248,146L254,146L254,149L248,149ZM257,146L260,146L260,149L257,149ZM266,146L275,146L275,149L266,149ZM44,149L53,149L53,152L44,152ZM59,149L62,149L62,152L59,152ZM65,149L71,149L71,152L65,152ZM77,149L83,149L83,152L77,152ZM86,149L89,149L89,152L86,152ZM98,149L101,149L101,152L98,152ZM110,149L113,149L113,152L110,152ZM116,149L125,149L125,152L116,152ZM128,149L131,149L131,152L128,152ZM134,149L137,149L137,152L134,152ZM140,149L155,149L155,152L140,152ZM158,149L161,149L161,152L158,152ZM164,149L167,149L167,152L164,152ZM176,149L185,149L185,152L176,152ZM191,149L194,149L194,152L191,152ZM197,149L200,149L200,152L197,152ZM203,149L206,149L206,152L203,152ZM209,149L212,149L212,152L209,152ZM215,149L221,149L221,152L215,152ZM233,149L236,149L236,152L233,152ZM239,149L242,149L242,152L239,152ZM254,149L266,149L266,152L254,152ZM269,149L272,149L272,152L269,152ZM50,152L53,152L53,155L50,155ZM62,152L65,152L65,155L62,155ZM77,152L86,152L86,155L77,155ZM89,152L98,152L98,155L89,155ZM101,152L104,152L104,155L101,155ZM110,152L122,152L122,155L110,155ZM125,152L134,152L134,155L125,155ZM140,152L146,152L146,155L140,155ZM149,152L155,152L155,155L149,155ZM158,152L164,152L164,155L158,155ZM167,152L176,152L176,155L167,155ZM179,152L182,152L182,155L179,155ZM188,152L191,152L191,155L188,155ZM200,152L203,152L203,155L200,155ZM209,152L215,152L215,155L209,155ZM224,152L227,152L227,155L224,155ZM230,152L233,152L233,155L230,155ZM239,152L242,152L242,155L239,155ZM245,152L248,152L248,155L245,155ZM260,152L263,152L263,155L260,155ZM266,152L269,152L269,155L266,155ZM47,155L53,155L53,158L47,158ZM71,155L74,155L74,158L71,158ZM83,155L89,155L89,158L83,158ZM92,155L98,155L98,158L92,158ZM104,155L107,155L107,158L104,158ZM110,155L113,155L113,158L110,158ZM119,155L125,155L125,158L119,158ZM128,155L131,155L131,158L128,158ZM137,155L146,155L146,158L137,158ZM152,155L161,155L161,158L152,158ZM164,155L167,155L167,158L164,158ZM170,155L176,155L176,158L170,158ZM182,155L185,155L185,158L182,158ZM188,155L197,155L197,158L188,158ZM200,155L209,155L209,158L200,158ZM212,155L218,155L218,158L212,158ZM221,155L233,155L233,158L221,158ZM236,155L239,155L239,158L236,158ZM245,155L260,155L260,158L245,158ZM263,155L269,155L269,158L263,158ZM272,155L275,155L275,158L272,158ZM50,158L53,158L53,161L50,161ZM56,158L59,158L59,161L56,161ZM62,158L65,158L65,161L62,161ZM68,158L77,158L77,161L68,161ZM86,158L89,158L89,161L86,161ZM98,158L104,158L104,161L98,161ZM119,158L122,158L122,161L119,161ZM128,158L131,158L131,161L128,161ZM143,158L149,158L149,161L143,161ZM158,158L161,158L161,161L158,161ZM164,158L170,158L170,161L164,161ZM176,158L179,158L179,161L176,161ZM182,158L185,158L185,161L182,161ZM191,158L206,158L206,161L191,161ZM212,158L215,158L215,161L212,161ZM218,158L230,158L230,161L218,161ZM233,158L239,158L239,161L233,161ZM251,158L254,158L254,161L251,161ZM266,158L269,158L269,161L266,161ZM44,161L47,161L47,164L44,164ZM53,161L56,161L56,164L53,164ZM65,161L77,161L77,164L65,164ZM86,161L89,161L89,164L86,164ZM98,161L104,161L104,164L98,164ZM110,161L113,161L113,164L110,164ZM116,161L125,161L125,164L116,164ZM137,161L143,161L143,164L137,164ZM146,161L155,161L155,164L146,164ZM161,161L167,161L167,164L161,164ZM173,161L182,161L182,164L173,164ZM194,161L200,161L200,164L194,164ZM203,161L209,161L209,164L203,164ZM218,161L227,161L227,164L218,164ZM233,161L236,161L236,164L233,164ZM239,161L245,161L245,164L239,164ZM257,161L260,161L260,164L257,164ZM269,161L272,161L272,164L269,164ZM44,164L47,164L47,167L44,167ZM53,164L56,164L56,167L53,167ZM62,164L65,164L65,167L62,167ZM68,164L71,164L71,167L68,167ZM74,164L77,164L77,167L74,167ZM80,164L83,164L83,167L80,167ZM86,164L89,164L89,167L86,167ZM92,164L95,164L95,167L92,167ZM104,164L110,164L110,167L104,167ZM113,164L131,164L131,167L113,167ZM137,164L140,164L140,167L137,167ZM164,164L170,164L170,167L164,167ZM173,164L176,164L176,167L173,167ZM179,164L182,164L182,167L179,167ZM185,164L191,164L191,167L185,167ZM194,164L197,164L197,167L194,167ZM200,164L212,164L212,167L200,167ZM215,164L221,164L221,167L215,167ZM224,164L227,164L227,167L224,167ZM233,164L236,164L236,167L233,167ZM239,164L248,164L248,167L239,167ZM260,164L272,164L272,167L260,167ZM47,167L62,167L62,170L47,170ZM71,167L80,167L80,170L71,170ZM83,167L95,167L95,170L83,170ZM98,167L101,167L101,170L98,170ZM107,167L113,167L113,170L107,170ZM125,167L131,167L131,170L125,170ZM134,167L137,167L137,170L134,170ZM143,167L155,167L155,170L143,170ZM158,167L161,167L161,170L158,170ZM167,167L170,167L170,170L167,170ZM176,167L182,167L182,170L176,170ZM191,167L203,167L203,170L191,170ZM206,167L218,167L218,170L206,170ZM221,167L224,167L224,170L221,170ZM230,167L236,167L236,170L230,170ZM242,167L257,167L257,170L242,170ZM266,167L269,167L269,170L266,170ZM44,170L47,170L47,173L44,173ZM53,170L59,170L59,173L53,173ZM62,170L68,170L68,173L62,173ZM71,170L77,170L77,173L71,173ZM80,170L83,170L83,173L80,173ZM86,170L89,170L89,173L86,173ZM92,170L95,170L95,173L92,173ZM104,170L116,170L116,173L104,173ZM122,170L128,170L128,173L122,173ZM137,170L140,170L140,173L137,173ZM143,170L152,170L152,173L143,173ZM164,170L167,170L167,173L164,173ZM179,170L185,170L185,173L179,173ZM188,170L191,170L191,173L188,173ZM197,170L200,170L200,173L197,173ZM212,170L218,170L218,173L212,173ZM221,170L224,170L224,173L221,173ZM230,170L236,170L236,173L230,173ZM251,170L260,170L260,173L251,173ZM263,170L269,170L269,173L263,173ZM272,170L275,170L275,173L272,173ZM50,173L53,173L53,176L50,176ZM59,173L62,173L62,176L59,176ZM74,173L77,173L77,176L74,176ZM104,173L116,173L116,176L104,176ZM119,173L122,173L122,176L119,176ZM125,173L134,173L134,176L125,176ZM140,173L143,173L143,176L140,176ZM146,173L149,173L149,176L146,176ZM185,173L188,173L188,176L185,176ZM194,173L206,173L206,176L194,176ZM212,173L221,173L221,176L212,176ZM233,173L242,173L242,176L233,176ZM251,173L254,173L254,176L251,176ZM257,173L260,173L260,176L257,176ZM44,176L50,176L50,179L44,179ZM59,176L74,176L74,179L59,179ZM83,176L86,176L86,179L83,179ZM89,176L92,176L92,179L89,179ZM95,176L98,176L98,179L95,179ZM101,176L107,176L107,179L101,179ZM113,176L116,176L116,179L113,179ZM122,176L125,176L125,179L122,179ZM140,176L146,176L146,179L140,179ZM152,176L161,176L161,179L152,179ZM167,176L170,176L170,179L167,179ZM179,176L194,176L194,179L179,179ZM197,176L200,176L200,179L197,179ZM203,176L209,176L209,179L203,179ZM215,176L218,176L218,179L215,179ZM221,176L224,176L224,179L221,179ZM233,176L236,176L236,179L233,179ZM251,176L260,176L260,179L251,179ZM263,176L266,176L266,179L263,179ZM269,176L272,176L272,179L269,179ZM50,179L59,179L59,182L50,182ZM65,179L68,179L68,182L65,182ZM74,179L77,179L77,182L74,182ZM83,179L98,179L98,182L83,182ZM101,179L104,179L104,182L101,182ZM113,179L116,179L116,182L113,182ZM128,179L137,179L137,182L128,182ZM143,179L146,179L146,182L143,182ZM149,179L152,179L152,182L149,182ZM155,179L158,179L158,182L155,182ZM161,179L164,179L164,182L161,182ZM167,179L170,179L170,182L167,182ZM173,179L176,179L176,182L173,182ZM179,179L182,179L182,182L179,182ZM191,179L194,179L194,182L191,182ZM197,179L203,179L203,182L197,182ZM206,179L209,179L209,182L206,182ZM221,179L230,179L230,182L221,182ZM233,179L245,179L245,182L233,182ZM248,179L251,179L251,182L248,182ZM263,179L269,179L269,182L263,182ZM272,179L275,179L275,182L272,182ZM44,182L53,182L53,185L44,185ZM56,182L77,182L77,185L56,185ZM80,182L89,182L89,185L80,185ZM92,182L104,182L104,185L92,185ZM110,182L137,182L137,185L110,185ZM143,182L149,182L149,185L143,185ZM152,182L158,182L158,185L152,185ZM170,182L179,182L179,185L170,185ZM182,182L200,182L200,185L182,185ZM203,182L206,182L206,185L203,185ZM215,182L224,182L224,185L215,185ZM230,182L242,182L242,185L230,185ZM245,182L263,182L263,185L245,185ZM266,182L269,182L269,185L266,185ZM272,182L275,182L275,185L272,185ZM50,185L59,185L59,188L50,188ZM68,185L77,185L77,188L68,188ZM80,185L83,185L83,188L80,188ZM86,185L89,185L89,188L86,188ZM92,185L95,185L95,188L92,188ZM98,185L101,185L101,188L98,188ZM104,185L110,185L110,188L104,188ZM116,185L119,185L119,188L116,188ZM128,185L131,185L131,188L128,188ZM134,185L137,185L137,188L134,188ZM140,185L143,185L143,188L140,188ZM161,185L167,185L167,188L161,188ZM173,185L176,185L176,188L173,188ZM179,185L185,185L185,188L179,188ZM194,185L206,185L206,188L194,188ZM209,185L212,185L212,188L209,188ZM215,185L224,185L224,188L215,188ZM227,185L230,185L230,188L227,188ZM233,185L245,185L245,188L233,188ZM248,185L251,185L251,188L248,188ZM260,185L263,185L263,188L260,188ZM269,185L275,185L275,188L269,188ZM53,188L59,188L59,191L53,191ZM62,188L65,188L65,191L62,191ZM68,188L71,188L71,191L68,191ZM74,188L83,188L83,191L74,191ZM92,188L95,188L95,191L92,191ZM98,188L104,188L104,191L98,191ZM107,188L113,188L113,191L107,191ZM116,188L119,188L119,191L116,191ZM122,188L125,188L125,191L122,191ZM128,188L131,188L131,191L128,191ZM134,188L137,188L137,191L134,191ZM140,188L146,188L146,191L140,191ZM149,188L155,188L155,191L149,191ZM164,188L167,188L167,191L164,191ZM170,188L173,188L173,191L170,191ZM176,188L185,188L185,191L176,191ZM188,188L191,188L191,191L188,191ZM194,188L197,188L197,191L194,191ZM200,188L209,188L209,191L200,191ZM215,188L218,188L218,191L215,191ZM224,188L227,188L227,191L224,191ZM248,188L251,188L251,191L248,191ZM254,188L257,188L257,191L254,191ZM260,188L266,188L266,191L260,191ZM269,188L272,188L272,191L269,191ZM44,191L59,191L59,194L44,194ZM68,191L71,191L71,194L68,194ZM74,191L86,191L86,194L74,194ZM89,191L95,191L95,194L89,194ZM101,191L107,191L107,194L101,194ZM110,191L119,191L119,194L110,194ZM128,191L131,191L131,194L128,194ZM134,191L137,191L137,194L134,194ZM143,191L146,191L146,194L143,194ZM149,191L152,191L152,194L149,194ZM155,191L158,191L158,194L155,194ZM173,191L185,191L185,194L173,194ZM194,191L197,191L197,194L194,194ZM206,191L209,191L209,194L206,194ZM212,191L215,191L215,194L212,194ZM221,191L227,191L227,194L221,194ZM230,191L236,191L236,194L230,194ZM245,191L251,191L251,194L245,194ZM260,191L263,191L263,194L260,194ZM266,191L269,191L269,194L266,194ZM56,194L74,194L74,197L56,197ZM77,194L80,194L80,197L77,197ZM83,194L95,194L95,197L83,197ZM101,194L113,194L113,197L101,197ZM116,194L134,194L134,197L116,197ZM137,194L140,194L140,197L137,197ZM143,194L158,194L158,197L143,197ZM167,194L170,194L170,197L167,197ZM179,194L206,194L206,197L179,197ZM212,194L224,194L224,197L212,197ZM230,194L239,194L239,197L230,197ZM248,194L275,194L275,197L248,197ZM44,197L47,197L47,200L44,200ZM50,197L56,197L56,200L50,200ZM59,197L62,197L62,200L59,200ZM68,197L71,197L71,200L68,200ZM77,197L83,197L83,200L77,200ZM92,197L95,197L95,200L92,200ZM98,197L116,197L116,200L98,200ZM122,197L125,197L125,200L122,200ZM134,197L137,197L137,200L134,200ZM140,197L143,197L143,200L140,200ZM146,197L161,197L161,200L146,200ZM164,197L176,197L176,200L164,200ZM179,197L182,197L182,200L179,200ZM194,197L200,197L200,200L194,200ZM203,197L206,197L206,200L203,200ZM212,197L221,197L221,200L212,200ZM224,197L227,197L227,200L224,200ZM239,197L242,197L242,200L239,200ZM245,197L254,197L254,200L245,200ZM263,197L266,197L266,200L263,200ZM269,197L272,197L272,200L269,200ZM44,200L53,200L53,203L44,203ZM59,200L65,200L65,203L59,203ZM68,200L83,200L83,203L68,203ZM86,200L95,200L95,203L86,203ZM98,200L107,200L107,203L98,203ZM116,200L119,200L119,203L116,203ZM122,200L128,200L128,203L122,203ZM134,200L140,200L140,203L134,203ZM146,200L149,200L149,203L146,203ZM167,200L170,200L170,203L167,203ZM179,200L185,200L185,203L179,203ZM188,200L191,200L191,203L188,203ZM194,200L200,200L200,203L194,203ZM203,200L206,200L206,203L203,203ZM209,200L212,200L212,203L209,203ZM215,200L227,200L227,203L215,203ZM230,200L233,200L233,203L230,203ZM236,200L242,200L242,203L236,203ZM245,200L251,200L251,203L245,203ZM257,200L269,200L269,203L257,203ZM44,203L50,203L50,206L44,206ZM56,203L62,203L62,206L56,206ZM65,203L68,203L68,206L65,206ZM80,203L89,203L89,206L80,206ZM95,203L98,203L98,206L95,206ZM110,203L116,203L116,206L110,206ZM131,203L140,203L140,206L131,206ZM143,203L146,203L146,206L143,206ZM152,203L155,203L155,206L152,206ZM158,203L164,203L164,206L158,206ZM167,203L173,203L173,206L167,206ZM176,203L179,203L179,206L176,206ZM188,203L194,203L194,206L188,206ZM197,203L203,203L203,206L197,206ZM206,203L209,203L209,206L206,206ZM212,203L218,203L218,206L212,206ZM221,203L224,203L224,206L221,206ZM227,203L239,203L239,206L227,206ZM242,203L245,203L245,206L242,206ZM248,203L251,203L251,206L248,206ZM257,203L260,203L260,206L257,206ZM263,203L275,203L275,206L263,206ZM53,206L59,206L59,209L53,209ZM62,206L65,206L65,209L62,209ZM86,206L89,206L89,209L86,209ZM92,206L95,206L95,209L92,209ZM98,206L107,206L107,209L98,209ZM116,206L122,206L122,209L116,209ZM125,206L131,206L131,209L125,209ZM134,206L137,206L137,209L134,209ZM140,206L164,206L164,209L140,209ZM173,206L182,206L182,209L173,209ZM185,206L188,206L188,209L185,209ZM191,206L197,206L197,209L191,209ZM200,206L209,206L209,209L200,209ZM215,206L218,206L218,209L215,209ZM221,206L227,206L227,209L221,209ZM233,206L242,206L242,209L233,209ZM254,206L263,206L263,209L254,209ZM266,206L275,206L275,209L266,209ZM44,209L53,209L53,212L44,212ZM59,209L62,209L62,212L59,212ZM68,209L80,209L80,212L68,212ZM86,209L92,209L92,212L86,212ZM95,209L98,209L98,212L95,212ZM101,209L104,209L104,212L101,212ZM107,209L116,209L116,212L107,212ZM119,209L125,209L125,212L119,212ZM128,209L143,209L143,212L128,212ZM149,209L152,209L152,212L149,212ZM161,209L164,209L164,212L161,212ZM167,209L173,209L173,212L167,212ZM176,209L182,209L182,212L176,212ZM185,209L191,209L191,212L185,212ZM194,209L197,209L197,212L194,212ZM200,209L209,209L209,212L200,212ZM215,209L218,209L218,212L215,212ZM224,209L227,209L227,212L224,212ZM236,209L239,209L239,212L236,212ZM242,209L248,209L248,212L242,212ZM251,209L254,209L254,212L251,212ZM44,212L50,212L50,215L44,215ZM53,212L59,212L59,215L53,215ZM62,212L65,212L65,215L62,215ZM77,212L83,212L83,215L77,215ZM89,212L95,212L95,215L89,215ZM107,212L113,212L113,215L107,215ZM116,212L119,212L119,215L116,215ZM122,212L131,212L131,215L122,215ZM134,212L146,212L146,215L134,215ZM149,212L155,212L155,215L149,215ZM161,212L164,212L164,215L161,215ZM167,212L170,212L170,215L167,215ZM173,212L179,212L179,215L173,215ZM182,212L185,212L185,215L182,215ZM194,212L197,212L197,215L194,215ZM206,212L218,212L218,215L206,215ZM224,212L227,212L227,215L224,215ZM230,212L233,212L233,215L230,215ZM239,212L242,212L242,215L239,215ZM245,212L254,212L254,215L245,215ZM263,212L272,212L272,215L263,215ZM44,215L50,215L50,218L44,218ZM59,215L62,215L62,218L59,218ZM68,215L71,215L71,218L68,218ZM74,215L77,215L77,218L74,218ZM80,215L89,215L89,218L80,218ZM92,215L98,215L98,218L92,218ZM101,215L104,215L104,218L101,218ZM110,215L113,215L113,218L110,218ZM119,215L125,215L125,218L119,218ZM131,215L134,215L134,218L131,218ZM149,215L152,215L152,218L149,218ZM158,215L164,215L164,218L158,218ZM167,215L173,215L173,218L167,218ZM185,215L188,215L188,218L185,218ZM191,215L194,215L194,218L191,218ZM197,215L200,215L200,218L197,218ZM203,215L209,215L209,218L203,218ZM212,215L218,215L218,218L212,218ZM227,215L236,215L236,218L227,218ZM239,215L245,215L245,218L239,218ZM248,215L254,215L254,218L248,218ZM266,215L269,215L269,218L266,218ZM47,218L56,218L56,221L47,221ZM62,218L65,218L65,221L62,221ZM74,218L83,218L83,221L74,221ZM86,218L89,218L89,221L86,221ZM92,218L95,218L95,221L92,221ZM98,218L113,218L113,221L98,221ZM119,218L122,218L122,221L119,221ZM125,218L131,218L131,221L125,221ZM134,218L137,218L137,221L134,221ZM143,218L146,218L146,221L143,221ZM149,218L155,218L155,221L149,221ZM158,218L161,218L161,221L158,221ZM167,218L170,218L170,221L167,221ZM173,218L182,218L182,221L173,221ZM185,218L188,218L188,221L185,221ZM194,218L203,218L203,221L194,221ZM215,218L218,218L218,221L215,221ZM221,218L224,218L224,221L221,221ZM233,218L245,218L245,221L233,221ZM254,218L257,218L257,221L254,221ZM260,218L263,218L263,221L260,221ZM266,218L275,218L275,221L266,221ZM44,221L47,221L47,224L44,224ZM53,221L56,221L56,224L53,224ZM59,221L62,221L62,224L59,224ZM65,221L71,221L71,224L65,224ZM83,221L89,221L89,224L83,224ZM92,221L104,221L104,224L92,224ZM107,221L113,221L113,224L107,224ZM116,221L125,221L125,224L116,224ZM137,221L140,221L140,224L137,224ZM143,221L146,221L146,224L143,224ZM149,221L155,221L155,224L149,224ZM164,221L167,221L167,224L164,224ZM170,221L182,221L182,224L170,224ZM188,221L191,221L191,224L188,224ZM200,221L206,221L206,224L200,224ZM209,221L212,221L212,224L209,224ZM215,221L221,221L221,224L215,224ZM224,221L227,221L227,224L224,224ZM233,221L242,221L242,224L233,224ZM245,221L248,221L248,224L245,224ZM257,221L260,221L260,224L257,224ZM263,221L272,221L272,224L263,224ZM44,224L47,224L47,227L44,227ZM53,224L65,224L65,227L53,227ZM68,224L77,224L77,227L68,227ZM86,224L89,224L89,227L86,227ZM98,224L107,224L107,227L98,227ZM110,224L113,224L113,227L110,227ZM119,224L122,224L122,227L119,227ZM125,224L128,224L128,227L125,227ZM134,224L137,224L137,227L134,227ZM140,224L143,224L143,227L140,227ZM149,224L161,224L161,227L149,227ZM170,224L173,224L173,227L170,227ZM176,224L179,224L179,227L176,227ZM182,224L185,224L185,227L182,227ZM188,224L191,224L191,227L188,227ZM197,224L200,224L200,227L197,227ZM203,224L218,224L218,227L203,227ZM221,224L227,224L227,227L221,227ZM230,224L233,224L233,227L230,227ZM242,224L248,224L248,227L242,227ZM251,224L254,224L254,227L251,227ZM260,224L269,224L269,227L260,227ZM47,227L50,227L50,230L47,230ZM53,227L56,227L56,230L53,230ZM68,227L74,227L74,230L68,230ZM80,227L92,227L92,230L80,230ZM95,227L101,227L101,230L95,230ZM110,227L113,227L113,230L110,230ZM122,227L125,227L125,230L122,230ZM128,227L131,227L131,230L128,230ZM149,227L152,227L152,230L149,230ZM161,227L167,227L167,230L161,230ZM173,227L182,227L182,230L173,230ZM188,227L191,227L191,230L188,230ZM194,227L197,227L197,230L194,230ZM206,227L212,227L212,230L206,230ZM221,227L224,227L224,230L221,230ZM227,227L236,227L236,230L227,230ZM239,227L251,227L251,230L239,230ZM260,227L275,227L275,230L260,230ZM53,230L56,230L56,233L53,233ZM62,230L65,230L65,233L62,233ZM74,230L80,230L80,233L74,233ZM83,230L104,230L104,233L83,233ZM110,230L119,230L119,233L110,233ZM122,230L125,230L125,233L122,233ZM128,230L131,230L131,233L128,233ZM134,230L140,230L140,233L134,233ZM143,230L146,230L146,233L143,233ZM149,230L152,230L152,233L149,233ZM155,230L164,230L164,233L155,233ZM170,230L173,230L173,233L170,233ZM179,230L182,230L182,233L179,233ZM185,230L194,230L194,233L185,233ZM197,230L206,230L206,233L197,233ZM212,230L224,230L224,233L212,233ZM227,230L230,230L230,233L227,233ZM233,230L239,230L239,233L233,233ZM245,230L248,230L248,233L245,233ZM251,230L260,230L260,233L251,233ZM266,230L272,230L272,233L266,233ZM50,233L53,233L53,236L50,236ZM68,233L80,233L80,236L68,236ZM86,233L89,233L89,236L86,236ZM95,233L98,233L98,236L95,236ZM104,233L119,233L119,236L104,236ZM128,233L131,233L131,236L128,236ZM134,233L140,233L140,236L134,236ZM143,233L149,233L149,236L143,236ZM167,233L170,233L170,236L167,236ZM176,233L185,233L185,236L176,236ZM188,233L197,233L197,236L188,236ZM200,233L206,233L206,236L200,236ZM215,233L224,233L224,236L215,236ZM236,233L242,233L242,236L236,236ZM248,233L254,233L254,236L248,236ZM257,233L260,233L260,236L257,236ZM269,233L272,233L272,236L269,236ZM44,236L53,236L53,239L44,239ZM56,236L77,236L77,239L56,239ZM80,236L83,236L83,239L80,239ZM86,236L89,236L89,239L86,239ZM92,236L95,236L95,239L92,239ZM104,236L110,236L110,239L104,239ZM113,236L116,236L116,239L113,239ZM119,236L122,236L122,239L119,239ZM125,236L134,236L134,239L125,239ZM170,236L179,236L179,239L170,239ZM182,236L185,236L185,239L182,239ZM191,236L194,236L194,239L191,239ZM203,236L206,236L206,239L203,239ZM209,236L218,236L218,239L209,239ZM224,236L227,236L227,239L224,239ZM233,236L251,236L251,239L233,239ZM257,236L272,236L272,239L257,239ZM44,239L50,239L50,242L44,242ZM53,239L59,239L59,242L53,242ZM65,239L68,239L68,242L65,242ZM74,239L77,239L77,242L74,242ZM83,239L86,239L86,242L83,242ZM95,239L98,239L98,242L95,242ZM107,239L110,239L110,242L107,242ZM113,239L116,239L116,242L113,242ZM125,239L134,239L134,242L125,242ZM137,239L146,239L146,242L137,242ZM149,239L155,239L155,242L149,242ZM158,239L161,239L161,242L158,242ZM167,239L170,239L170,242L167,242ZM173,239L176,239L176,242L173,242ZM182,239L188,239L188,242L182,242ZM194,239L200,239L200,242L194,242ZM218,239L227,239L227,242L218,242ZM230,239L236,239L236,242L230,242ZM239,239L245,239L245,242L239,242ZM248,239L251,239L251,242L248,242ZM254,239L257,239L257,242L254,242ZM260,239L263,239L263,242L260,242ZM266,239L269,239L269,242L266,242ZM272,239L275,239L275,242L272,242ZM47,242L50,242L50,245L47,245ZM56,242L68,242L68,245L56,245ZM71,242L77,242L77,245L71,245ZM80,242L83,242L83,245L80,245ZM86,242L89,242L89,245L86,245ZM92,242L95,242L95,245L92,245ZM98,242L101,242L101,245L98,245ZM104,242L107,242L107,245L104,245ZM119,242L122,242L122,245L119,245ZM134,242L140,242L140,245L134,245ZM149,242L152,242L152,245L149,245ZM164,242L170,242L170,245L164,245ZM176,242L179,242L179,245L176,245ZM182,242L200,242L200,245L182,245ZM203,242L206,242L206,245L203,245ZM215,242L218,242L218,245L215,245ZM221,242L224,242L224,245L221,245ZM230,242L236,242L236,245L230,245ZM239,242L248,242L248,245L239,245ZM254,242L257,242L257,245L254,245ZM266,242L269,242L269,245L266,245ZM56,245L59,245L59,248L56,248ZM68,245L71,245L71,248L68,248ZM86,245L89,245L89,248L86,248ZM98,245L101,245L101,248L98,248ZM116,245L128,245L128,248L116,248ZM137,245L140,245L140,248L137,248ZM143,245L146,245L146,248L143,248ZM167,245L173,245L173,248L167,248ZM176,245L191,245L191,248L176,248ZM203,245L206,245L206,248L203,248ZM215,245L218,245L218,248L215,248ZM221,245L224,245L224,248L221,248ZM230,245L233,245L233,248L230,248ZM236,245L242,245L242,248L236,248ZM257,245L260,245L260,248L257,248ZM269,245L275,245L275,248L269,248ZM47,248L59,248L59,251L47,251ZM62,248L83,248L83,251L62,251ZM92,248L95,248L95,251L92,251ZM98,248L104,248L104,251L98,251ZM113,248L140,248L140,251L113,251ZM143,248L149,248L149,251L143,251ZM164,248L176,248L176,251L164,251ZM182,248L200,248L200,251L182,251ZM203,248L206,248L206,251L203,251ZM209,248L221,248L221,251L209,251ZM224,248L227,248L227,251L224,251ZM239,248L263,248L263,251L239,251ZM266,248L272,248L272,251L266,251ZM68,251L71,251L71,254L68,254ZM83,251L86,251L86,254L83,254ZM92,251L98,251L98,254L92,254ZM101,251L104,251L104,254L101,254ZM107,251L113,251L113,254L107,254ZM116,251L119,251L119,254L116,254ZM128,251L137,251L137,254L128,254ZM143,251L155,251L155,254L143,254ZM161,251L164,251L164,254L161,254ZM167,251L176,251L176,254L167,254ZM179,251L185,251L185,254L179,254ZM194,251L203,251L203,254L194,254ZM206,251L209,251L209,254L206,254ZM212,251L218,251L218,254L212,254ZM221,251L233,251L233,254L221,254ZM236,251L242,251L242,254L236,254ZM248,251L251,251L251,254L248,254ZM260,251L263,251L263,254L260,254ZM266,251L269,251L269,254L266,254ZM44,254L65,254L65,257L44,257ZM68,254L71,254L71,257L68,257ZM77,254L80,254L80,257L77,257ZM86,254L89,254L89,257L86,257ZM95,254L98,254L98,257L95,257ZM101,254L110,254L110,257L101,257ZM116,254L119,254L119,257L116,257ZM122,254L125,254L125,257L122,257ZM128,254L134,254L134,257L128,257ZM140,254L158,254L158,257L140,257ZM161,254L173,254L173,257L161,257ZM182,254L185,254L185,257L182,257ZM188,254L191,254L191,257L188,257ZM194,254L209,254L209,257L194,257ZM221,254L224,254L224,257L221,257ZM227,254L230,254L230,257L227,257ZM233,254L239,254L239,257L233,257ZM248,254L251,254L251,257L248,257ZM254,254L257,254L257,257L254,257ZM260,254L263,254L263,257L260,257ZM266,254L269,254L269,257L266,257ZM272,254L275,254L275,257L272,257ZM44,257L47,257L47,260L44,260ZM62,257L65,257L65,260L62,260ZM68,257L71,257L71,260L68,260ZM74,257L86,257L86,260L74,260ZM92,257L98,257L98,260L92,260ZM104,257L107,257L107,260L104,260ZM110,257L119,257L119,260L110,260ZM128,257L134,257L134,260L128,260ZM137,257L143,257L143,260L137,260ZM158,257L161,257L161,260L158,260ZM164,257L167,257L167,260L164,260ZM176,257L185,257L185,260L176,260ZM194,257L209,257L209,260L194,260ZM212,257L221,257L221,260L212,260ZM230,257L236,257L236,260L230,260ZM239,257L242,257L242,260L239,260ZM245,257L251,257L251,260L245,260ZM260,257L266,257L266,260L260,260ZM269,257L275,257L275,260L269,260ZM44,260L47,260L47,263L44,263ZM50,260L59,260L59,263L50,263ZM62,260L65,260L65,263L62,263ZM68,260L77,260L77,263L68,263ZM89,260L95,260L95,263L89,263ZM98,260L101,260L101,263L98,263ZM104,260L131,260L131,263L104,263ZM137,260L143,260L143,263L137,263ZM146,260L155,260L155,263L146,263ZM158,260L161,260L161,263L158,263ZM170,260L173,260L173,263L170,263ZM176,260L200,260L200,263L176,263ZM203,260L209,260L209,263L203,263ZM212,260L221,260L221,263L212,263ZM224,260L227,260L227,263L224,263ZM230,260L233,260L233,263L230,263ZM239,260L242,260L242,263L239,263ZM248,260L263,260L263,263L248,263ZM266,260L272,260L272,263L266,263ZM44,263L47,263L47,266L44,266ZM50,263L59,263L59,266L50,266ZM62,263L65,263L65,266L62,266ZM77,263L83,263L83,266L77,266ZM86,263L92,263L92,266L86,266ZM98,263L107,263L107,266L98,266ZM113,263L125,263L125,266L113,266ZM128,263L131,263L131,266L128,266ZM134,263L137,263L137,266L134,266ZM143,263L146,263L146,266L143,266ZM152,263L155,263L155,266L152,266ZM161,263L164,263L164,266L161,266ZM167,263L176,263L176,266L167,266ZM182,263L185,263L185,266L182,266ZM194,263L203,263L203,266L194,266ZM206,263L209,263L209,266L206,266ZM212,263L215,263L215,266L212,266ZM221,263L227,263L227,266L221,266ZM233,263L248,263L248,266L233,266ZM251,263L254,263L254,266L251,266ZM257,263L272,263L272,266L257,266ZM44,266L47,266L47,269L44,269ZM50,266L59,266L59,269L50,269ZM62,266L65,266L65,269L62,269ZM71,266L74,266L74,269L71,269ZM83,266L89,266L89,269L83,269ZM92,266L98,266L98,269L92,269ZM110,266L125,266L125,269L110,269ZM128,266L137,266L137,269L128,269ZM140,266L143,266L143,269L140,269ZM149,266L158,266L158,269L149,269ZM167,266L170,266L170,269L167,269ZM179,266L194,266L194,269L179,269ZM197,266L200,266L200,269L197,269ZM203,266L206,266L206,269L203,269ZM212,266L215,266L215,269L212,269ZM221,266L230,266L230,269L221,269ZM233,266L239,266L239,269L233,269ZM242,266L248,266L248,269L242,269ZM251,266L254,266L254,269L251,269ZM266,266L275,266L275,269L266,269ZM44,269L47,269L47,272L44,272ZM62,269L65,269L65,272L62,272ZM71,269L74,269L74,272L71,272ZM77,269L86,269L86,272L77,272ZM89,269L95,269L95,272L89,272ZM104,269L107,269L107,272L104,272ZM110,269L113,269L113,272L110,272ZM116,269L119,269L119,272L116,272ZM131,269L137,269L137,272L131,272ZM140,269L143,269L143,272L140,272ZM149,269L158,269L158,272L149,272ZM164,269L173,269L173,272L164,272ZM176,269L179,269L179,272L176,272ZM182,269L191,269L191,272L182,272ZM194,269L206,269L206,272L194,272ZM212,269L218,269L218,272L212,272ZM221,269L227,269L227,272L221,272ZM233,269L236,269L236,272L233,272ZM239,269L245,269L245,272L239,272ZM251,269L257,269L257,272L251,272ZM260,269L263,269L263,272L260,272ZM44,272L65,272L65,275L44,275ZM71,272L83,272L83,275L71,275ZM86,272L95,272L95,275L86,275ZM98,272L101,272L101,275L98,275ZM104,272L119,272L119,275L104,275ZM122,272L125,272L125,275L122,275ZM134,272L137,272L137,275L134,275ZM140,272L146,272L146,275L140,275ZM149,272L155,272L155,275L149,275ZM161,272L164,272L164,275L161,275ZM167,272L170,272L170,275L167,275ZM173,272L176,272L176,275L173,275ZM191,272L194,272L194,275L191,275ZM197,272L200,272L200,275L197,275ZM203,272L206,272L206,275L203,275ZM209,272L215,272L215,275L209,275ZM218,272L227,272L227,275L218,275ZM233,272L236,272L236,275L233,275ZM239,272L242,272L242,275L239,275ZM245,272L251,272L251,275L245,275ZM254,272L272,272L272,275L254,275Z"/></svg>
